<svg width="24" height="24" viewBox="0 0 24 24" fill="none" xmlns="http://www.w3.org/2000/svg">
  <mask id="mask0_309_132489" style="mask-type:alpha" maskUnits="userSpaceOnUse" x="0" y="0" width="24" height="24">
  <rect width="24" height="24" fill="#D9D9D9"/>
  </mask>
  <g mask="url(#mask0_309_132489)">
  <path d="M7 22V17H2V13H8.45L10.15 15.55C10.2333 15.6833 10.35 15.7917 10.5 15.875C10.65 15.9583 10.8083 16 10.975 16C11.1917 16 11.3917 15.9333 11.575 15.8C11.7583 15.6667 11.8833 15.5 11.95 15.3L13.3 11.25L14.15 12.55C14.25 12.6833 14.375 12.7917 14.525 12.875C14.675 12.9583 14.8333 13 15 13H22V17H17V22H7ZM10.7 12.75L9.825 11.45C9.74167 11.3167 9.625 11.2083 9.475 11.125C9.325 11.0417 9.16667 11 9 11H2V7H7V2H17V7H22V11H15.525L13.825 8.45C13.7417 8.31667 13.625 8.20833 13.475 8.125C13.325 8.04167 13.1667 8 13 8C12.7833 8 12.5875 8.06667 12.4125 8.2C12.2375 8.33333 12.1167 8.5 12.05 8.7L10.7 12.75Z" fill="#433A2E"/>
  </g>
  </svg>
  