<svg width="64" height="64" viewBox="0 0 64 64" fill="none" xmlns="http://www.w3.org/2000/svg">
  <path d="M50 36C50 40.4183 46.4183 44 42 44C37.5817 44 34 40.4183 34 36C34 31.5817 42 20 42 20C42 20 50 31.5817 50 36Z" fill="#00C4DF"/>
  <path d="M36.5325 36.2773C36.3786 33.7274 40.5628 26.5822 40.5628 26.5822" stroke="white" stroke-width="2" stroke-linecap="round"/>
  <path d="M30 36C30 40.4183 26.4183 44 22 44C17.5817 44 14 40.4183 14 36C14 31.5817 22 20 22 20C22 20 30 31.5817 30 36Z" fill="#00C4DF"/>
  <path d="M16.5325 36.2773C16.3786 33.7274 20.5628 26.5822 20.5628 26.5822" stroke="white" stroke-width="2" stroke-linecap="round"/>
  </svg>
  