<svg width="64" height="64" viewBox="0 0 64 64" fill="none" xmlns="http://www.w3.org/2000/svg">
  <path d="M40 36C40 40.4183 36.4183 44 32 44C27.5817 44 24 40.4183 24 36C24 31.5817 32 20 32 20C32 20 40 31.5817 40 36Z" fill="#00C4DF"/>
  <path d="M26.5325 36.2773C26.3786 33.7274 30.5628 26.5822 30.5628 26.5822" stroke="white" stroke-width="2" stroke-linecap="round"/>
  <path d="M60 36C60 40.4183 56.4183 44 52 44C47.5817 44 44 40.4183 44 36C44 31.5817 52 20 52 20C52 20 60 31.5817 60 36Z" fill="#00C4DF"/>
  <path d="M46.5325 36.2773C46.3786 33.7274 50.5628 26.5822 50.5628 26.5822" stroke="white" stroke-width="2" stroke-linecap="round"/>
  <path d="M20 36C20 40.4183 16.4183 44 12 44C7.58172 44 4 40.4183 4 36C4 31.5817 12 20 12 20C12 20 20 31.5817 20 36Z" fill="#00C4DF"/>
  <path d="M6.53255 36.2773C6.37857 33.7274 10.5628 26.5822 10.5628 26.5822" stroke="white" stroke-width="2" stroke-linecap="round"/>
  </svg>
  