<svg width="64" height="64" viewBox="0 0 64 64" fill="none" xmlns="http://www.w3.org/2000/svg">
  <path d="M40 46C40 50.4183 36.4183 54 32 54C27.5817 54 24 50.4183 24 46C24 41.5817 32 30 32 30C32 30 40 41.5817 40 46Z" fill="#00C4DF"/>
  <path d="M26.5325 46.2773C26.3786 43.7274 30.5628 36.5822 30.5628 36.5822" stroke="white" stroke-width="2" stroke-linecap="round"/>
  <path d="M60 46C60 50.4183 56.4183 54 52 54C47.5817 54 44 50.4183 44 46C44 41.5817 52 30 52 30C52 30 60 41.5817 60 46Z" fill="#00C4DF"/>
  <path d="M46.5325 46.2773C46.3786 43.7274 50.5628 36.5822 50.5628 36.5822" stroke="white" stroke-width="2" stroke-linecap="round"/>
  <path d="M20 46C20 50.4183 16.4183 54 12 54C7.58172 54 4 50.4183 4 46C4 41.5817 12 30 12 30C12 30 20 41.5817 20 46Z" fill="#00C4DF"/>
  <path d="M6.53255 46.2773C6.37857 43.7274 10.5628 36.5822 10.5628 36.5822" stroke="white" stroke-width="2" stroke-linecap="round"/>
  <path d="M50 26C50 30.4183 46.4183 34 42 34C37.5817 34 34 30.4183 34 26C34 21.5817 42 10 42 10C42 10 50 21.5817 50 26Z" fill="#00C4DF"/>
  <path d="M36.5325 26.2773C36.3786 23.7274 40.5628 16.5822 40.5628 16.5822" stroke="white" stroke-width="2" stroke-linecap="round"/>
  <path d="M30 26C30 30.4183 26.4183 34 22 34C17.5817 34 14 30.4183 14 26C14 21.5817 22 10 22 10C22 10 30 21.5817 30 26Z" fill="#00C4DF"/>
  <path d="M16.5325 26.2773C16.3786 23.7274 20.5628 16.5822 20.5628 16.5822" stroke="white" stroke-width="2" stroke-linecap="round"/>
  </svg>
  