<svg width="64" height="64" viewBox="0 0 64 64" fill="none" xmlns="http://www.w3.org/2000/svg">
  <path d="M40 23C40 27.4183 36.4183 31 32 31C27.5817 31 24 27.4183 24 23C24 18.5817 32 7 32 7C32 7 40 18.5817 40 23Z" fill="#00C4DF"/>
  <path d="M26.5325 23.2773C26.3786 20.7274 30.5628 13.5822 30.5628 13.5822" stroke="white" stroke-width="2" stroke-linecap="round"/>
  <path d="M56 36C56 40.4183 52.4183 44 48 44C43.5817 44 40 40.4183 40 36C40 31.5817 48 20 48 20C48 20 56 31.5817 56 36Z" fill="#00C4DF"/>
  <path d="M42.5325 36.2773C42.3786 33.7274 46.5628 26.5822 46.5628 26.5822" stroke="white" stroke-width="2" stroke-linecap="round"/>
  <path d="M24 36C24 40.4183 20.4183 44 16 44C11.5817 44 8 40.4183 8 36C8 31.5817 16 20 16 20C16 20 24 31.5817 24 36Z" fill="#00C4DF"/>
  <path d="M10.5325 36.2773C10.3786 33.7274 14.5628 26.5822 14.5628 26.5822" stroke="white" stroke-width="2" stroke-linecap="round"/>
  <path d="M40 49C40 53.4183 36.4183 57 32 57C27.5817 57 24 53.4183 24 49C24 44.5817 32 33 32 33C32 33 40 44.5817 40 49Z" fill="#00C4DF"/>
  <path d="M26.5325 49.2773C26.3786 46.7274 30.5628 39.5822 30.5628 39.5822" stroke="white" stroke-width="2" stroke-linecap="round"/>
  </svg>
  