<svg width="64" height="64" viewBox="0 0 64 64" fill="none" xmlns="http://www.w3.org/2000/svg">
  <path fill-rule="evenodd" clip-rule="evenodd" d="M32 14C33.1046 14 34 14.8954 34 16V18C34 19.1046 33.1046 20 32 20C30.8954 20 30 19.1046 30 18V16C30 14.8954 30.8954 14 32 14ZM32 44C33.1046 44 34 44.8954 34 46V48C34 49.1046 33.1046 50 32 50C30.8954 50 30 49.1046 30 48V46C30 44.8954 30.8954 44 32 44ZM47.5883 22.9998C48.1405 23.9563 47.8128 25.1795 46.8562 25.7318L45.1242 26.7318C44.1676 27.2841 42.9444 26.9563 42.3921 25.9998C41.8398 25.0432 42.1676 23.82 43.1242 23.2677L44.8562 22.2677C45.8128 21.7154 47.036 22.0432 47.5883 22.9998ZM21.6075 37.9998C22.1598 38.9563 21.832 40.1795 20.8755 40.7318L19.1434 41.7318C18.1868 42.2841 16.9636 41.9563 16.4113 40.9998C15.8591 40.0432 16.1868 38.82 17.1434 38.2677L18.8755 37.2677C19.832 36.7154 21.0552 37.0432 21.6075 37.9998ZM44.8565 41.732C45.813 42.2843 47.0362 41.9566 47.5885 41C48.1408 40.0434 47.813 38.8202 46.8565 38.268L45.1244 37.268C44.1678 36.7157 42.9446 37.0434 42.3924 38C41.8401 38.9566 42.1678 40.1798 43.1244 40.732L44.8565 41.732ZM18.8757 26.7321C19.8323 27.2843 21.0555 26.9566 21.6077 26C22.16 25.0434 21.8323 23.8202 20.8757 23.268L19.1436 22.268C18.1871 21.7157 16.9639 22.0434 16.4116 23C15.8593 23.9566 16.1871 25.1798 17.1436 25.7321L18.8757 26.7321Z" fill="#EDB900"/>
  <circle cx="32" cy="32" r="10" fill="#EDB900"/>
  </svg>
  