<svg width="64" height="64" viewBox="0 0 64 64" fill="none" xmlns="http://www.w3.org/2000/svg">
  <path fill-rule="evenodd" clip-rule="evenodd" d="M34 15C34 13.8954 33.1046 13 32 13C30.8954 13 30 13.8954 30 15V18C30 19.1046 30.8954 20 32 20C33.1046 20 34 19.1046 34 18V15ZM34 46C34 44.8954 33.1046 44 32 44C30.8954 44 30 44.8954 30 46V49C30 50.1046 30.8954 51 32 51C33.1046 51 34 50.1046 34 49V46ZM42.232 18.2776C42.7843 17.321 42.4566 16.0978 41.5 15.5455C40.5434 14.9933 39.3202 15.321 38.768 16.2776L37.268 18.8757C36.7157 19.8322 37.0434 21.0554 38 21.6077C38.9566 22.16 40.1798 21.8322 40.732 20.8757L42.232 18.2776ZM26.7321 45.1244C27.2843 44.1678 26.9566 42.9446 26 42.3923C25.0434 41.84 23.8202 42.1678 23.2679 43.1244L21.7679 45.7225C21.2157 46.679 21.5434 47.9022 22.5 48.4545C23.4566 49.0068 24.6798 48.679 25.2321 47.7225L26.7321 45.1244ZM48.4545 22.5C49.0067 23.4566 48.679 24.6798 47.7224 25.2321L45.1243 26.7321C44.1678 27.2843 42.9446 26.9566 42.3923 26C41.84 25.0434 42.1678 23.8202 43.1243 23.2679L45.7224 21.7679C46.679 21.2157 47.9022 21.5434 48.4545 22.5ZM21.6077 38C22.16 38.9566 21.8322 40.1798 20.8756 40.732L18.2775 42.232C17.321 42.7843 16.0978 42.4566 15.5455 41.5C14.9932 40.5434 15.321 39.3202 16.2775 38.768L18.8756 37.268C19.8322 36.7157 21.0554 37.0434 21.6077 38ZM38.768 47.7227C39.3202 48.6792 40.5434 49.007 41.5 48.4547C42.4566 47.9024 42.7843 46.6792 42.232 45.7227L40.732 43.1246C40.1798 42.168 38.9566 41.8402 38 42.3925C37.0434 42.9448 36.7157 44.168 37.2679 45.1246L38.768 47.7227ZM23.2679 20.8759C23.8202 21.8325 25.0434 22.1602 26 21.6079C26.9566 21.0556 27.2843 19.8325 26.732 18.8759L25.232 16.2778C24.6798 15.3212 23.4566 14.9935 22.5 15.5457C21.5434 16.098 21.2157 17.3212 21.7679 18.2778L23.2679 20.8759ZM51 32.0001C51 33.1047 50.1046 34.0001 49 34.0001H46C44.8954 34.0001 44 33.1047 44 32.0001C44 30.8956 44.8954 30.0001 46 30.0001H49C50.1046 30.0001 51 30.8956 51 32.0001ZM20 32.0001C20 33.1047 19.1046 34.0001 18 34.0001H15C13.8954 34.0001 13 33.1047 13 32.0001C13 30.8956 13.8954 30.0001 15 30.0001H18C19.1046 30.0001 20 30.8956 20 32.0001ZM45.7224 42.2322C46.679 42.7845 47.9022 42.4567 48.4545 41.5001C49.0067 40.5435 48.679 39.3204 47.7224 38.7681L45.1243 37.2681C44.1678 36.7158 42.9446 37.0435 42.3923 38.0001C41.84 38.9567 42.1678 40.1799 43.1243 40.7322L45.7224 42.2322ZM18.8756 26.7322C19.8322 27.2845 21.0554 26.9567 21.6077 26.0001C22.16 25.0435 21.8322 23.8204 20.8756 23.2681L18.2775 21.7681C17.321 21.2158 16.0978 21.5435 15.5455 22.5001C14.9932 23.4567 15.321 24.6799 16.2775 25.2322L18.8756 26.7322Z" fill="#EDB900"/>
  <circle cx="32" cy="32" r="10" fill="#EDB900"/>
  </svg>
  