<svg width="64" height="64" viewBox="0 0 64 64" fill="none" xmlns="http://www.w3.org/2000/svg">
  <path fill-rule="evenodd" clip-rule="evenodd" d="M34 14C34 12.8954 33.1046 12 32 12C30.8954 12 30 12.8954 30 14V18.0645C30 19.1691 30.8954 20.0645 32 20.0645C33.1046 20.0645 34 19.1691 34 18.0645V14ZM34 45.9355C34 44.8309 33.1046 43.9355 32 43.9355C30.8954 43.9355 30 44.8309 30 45.9355V50C30 51.1046 30.8954 52 32 52C33.1046 52 34 51.1046 34 50V45.9355ZM42.732 17.4116C43.2843 16.455 42.9566 15.2319 42 14.6796C41.0434 14.1273 39.8202 14.455 39.268 15.4116L37.2357 18.9316C36.6834 19.8882 37.0112 21.1114 37.9677 21.6637C38.9243 22.2159 40.1475 21.8882 40.6998 20.9316L42.732 17.4116ZM26.7643 45.0686C27.3166 44.112 26.9888 42.8888 26.0322 42.3366C25.0756 41.7843 23.8525 42.112 23.3002 43.0686L21.2679 46.5886C20.7156 47.5452 21.0434 48.7684 22 49.3206C22.9566 49.8729 24.1797 49.5452 24.732 48.5886L26.7643 45.0686ZM49.3204 22C49.8727 22.9566 49.545 24.1798 48.5884 24.7321L45.0684 26.7643C44.1118 27.3166 42.8886 26.9888 42.3363 26.0323C41.7841 25.0757 42.1118 23.8525 43.0684 23.3002L46.5884 21.2679C47.545 20.7157 48.7681 21.0434 49.3204 22ZM21.6634 37.9678C22.2157 38.9244 21.888 40.1475 20.9314 40.6998L17.4114 42.7321C16.4548 43.2844 15.2316 42.9566 14.6794 42C14.1271 41.0434 14.4548 39.8203 15.4114 39.268L18.9314 37.2357C19.888 36.6834 21.1112 37.0112 21.6634 37.9678ZM50 34C51.1046 34 52 33.1046 52 32C52 30.8954 51.1046 30 50 30H45.9355C44.8309 30 43.9355 30.8954 43.9355 32C43.9355 33.1046 44.8309 34 45.9355 34H50ZM18.0645 34C19.1691 34 20.0645 33.1046 20.0645 32C20.0645 30.8954 19.1691 30 18.0645 30H14C12.8954 30 12 30.8954 12 32C12 33.1046 12.8954 34 14 34H18.0645ZM49.3204 42C48.7681 42.9566 47.545 43.2843 46.5884 42.732L43.0684 40.6998C42.1118 40.1475 41.7841 38.9243 42.3363 37.9677C42.8886 37.0112 44.1118 36.6834 45.0684 37.2357L48.5884 39.268C49.545 39.8202 49.8727 41.0434 49.3204 42ZM21.6634 26.0322C21.1112 26.9888 19.888 27.3166 18.9314 26.7643L15.4114 24.732C14.4548 24.1797 14.1271 22.9566 14.6794 22C15.2316 21.0434 16.4548 20.7156 17.4114 21.2679L20.9314 23.3002C21.888 23.8525 22.2157 25.0756 21.6634 26.0322ZM39.268 48.5883C39.8202 49.5448 41.0434 49.8726 42 49.3203C42.9566 48.768 43.2843 47.5448 42.732 46.5883L40.6998 43.0683C40.1475 42.1117 38.9243 41.7839 37.9677 42.3362C37.0112 42.8885 36.6834 44.1117 37.2357 45.0683L39.268 48.5883ZM23.3002 20.9313C23.8525 21.8879 25.0756 22.2156 26.0322 21.6633C26.9888 21.111 27.3166 19.8879 26.7643 18.9313L24.732 15.4113C24.1797 14.4547 22.9566 14.127 22 14.6792C21.0434 15.2315 20.7156 16.4547 21.2679 17.4113L23.3002 20.9313Z" fill="#FF543D"/>
  <circle cx="32" cy="32" r="10" fill="#FF543D"/>
  </svg>
  