<svg width="64" height="64" viewBox="0 0 64 64" fill="none" xmlns="http://www.w3.org/2000/svg">
  <path fill-rule="evenodd" clip-rule="evenodd" d="M34 16C34 14.8954 33.1046 14 32 14C30.8954 14 30 14.8954 30 16V18C30 19.1046 30.8954 20 32 20C33.1046 20 34 19.1046 34 18V16ZM34 46C34 44.8954 33.1046 44 32 44C30.8954 44 30 44.8954 30 46V48C30 49.1046 30.8954 50 32 50C33.1046 50 34 49.1046 34 48V46ZM43.3137 23.5146L44.7279 22.1004C45.509 21.3193 45.509 20.053 44.7279 19.2719C43.9469 18.4909 42.6806 18.4909 41.8995 19.2719L40.4853 20.6862C39.7042 21.4672 39.7042 22.7335 40.4853 23.5146C41.2663 24.2956 42.5327 24.2956 43.3137 23.5146ZM22.1005 44.7278L23.5147 43.3136C24.2958 42.5325 24.2958 41.2662 23.5147 40.4851C22.7337 39.7041 21.4674 39.7041 20.6863 40.4851L19.2721 41.8994C18.491 42.6804 18.491 43.9467 19.2721 44.7278C20.0531 45.5088 21.3195 45.5088 22.1005 44.7278ZM50 32C50 33.1046 49.1046 34 48 34H46C44.8954 34 44 33.1046 44 32C44 30.8954 44.8954 30 46 30H48C49.1046 30 50 30.8954 50 32ZM20 32C20 33.1046 19.1046 34 18 34H16C14.8954 34 14 33.1046 14 32C14 30.8954 14.8954 30 16 30H18C19.1046 30 20 30.8954 20 32ZM40.4853 43.3138L41.8995 44.7281C42.6806 45.5091 43.9469 45.5091 44.7279 44.7281C45.509 43.947 45.509 42.6807 44.7279 41.8996L43.3137 40.4854C42.5327 39.7044 41.2663 39.7044 40.4853 40.4854C39.7042 41.2665 39.7042 42.5328 40.4853 43.3138ZM20.6863 23.5149C21.4674 24.2959 22.7337 24.2959 23.5147 23.5149C24.2958 22.7338 24.2958 21.4675 23.5147 20.6864L22.1005 19.2722C21.3195 18.4912 20.0531 18.4912 19.2721 19.2722C18.491 20.0533 18.491 21.3196 19.2721 22.1006L20.6863 23.5149Z" fill="#EDB900"/>
  <circle cx="32" cy="32" r="10" fill="#EDB900"/>
  </svg>
  