<svg width="24" height="24" viewBox="0 0 24 24" fill="none" xmlns="http://www.w3.org/2000/svg">
  <path fill-rule="evenodd" clip-rule="evenodd" d="M12 3C7.02944 3 3 7.02944 3 12C3 16.9706 7.02944 21 12 21C16.9706 21 21 16.9706 21 12C21 7.02944 16.9706 3 12 3ZM9.99982 6.47222C9.99982 6.21142 10.2112 6 10.472 6H13.5275C13.7883 6 13.9997 6.21142 13.9997 6.47222V13.0278C13.9997 13.2886 13.7883 13.5 13.5275 13.5H10.472C10.2112 13.5 9.99982 13.2886 9.99982 13.0278V6.47222ZM9.99976 15.5C9.99976 15.2239 10.2236 15 10.4998 15H13.4997C13.7758 15 13.9997 15.2239 13.9997 15.5V17.5C13.9997 17.7761 13.7758 18 13.4997 18H10.4998C10.2236 18 9.99976 17.7761 9.99976 17.5V15.5Z" fill="#EF0000"/>
  </svg>
  