<svg width="10" height="20" viewBox="0 0 10 20" fill="none" xmlns="http://www.w3.org/2000/svg">
<path d="M5 20C3.61667 20 2.4375 19.5125 1.4625 18.5375C0.4875 17.5625 0 16.3833 0 15C0 14.2 0.175 13.4542 0.525 12.7625C0.875 12.0708 1.36667 11.4833 2 11V3C2 2.16667 2.29167 1.45833 2.875 0.875C3.45833 0.291667 4.16667 0 5 0C5.83333 0 6.54167 0.291667 7.125 0.875C7.70833 1.45833 8 2.16667 8 3V11C8.63333 11.4833 9.125 12.0708 9.475 12.7625C9.825 13.4542 10 14.2 10 15C10 16.3833 9.5125 17.5625 8.5375 18.5375C7.5625 19.5125 6.38333 20 5 20ZM4 9H6V8H5V7H6V5H5V4H6V3C6 2.71667 5.90417 2.47917 5.7125 2.2875C5.52083 2.09583 5.28333 2 5 2C4.71667 2 4.47917 2.09583 4.2875 2.2875C4.09583 2.47917 4 2.71667 4 3V9Z" fill="#F28300"/>
</svg>
