<svg width="33" height="32" viewBox="0 0 33 32" fill="none" xmlns="http://www.w3.org/2000/svg">
  <mask id="mask0_355_4160" style="mask-type:alpha" maskUnits="userSpaceOnUse" x="0" y="0" width="33" height="32">
    <rect x="0.25" width="32" height="32" fill="#D9D9D9" />
  </mask>
  <g mask="url(#mask0_355_4160)">
    <path
      d="M12.25 19.0001C11.7833 19.0001 11.3888 18.839 11.0666 18.5167C10.7444 18.1945 10.5833 17.8001 10.5833 17.3334C10.5833 16.8667 10.7444 16.4723 11.0666 16.1501C11.3888 15.8279 11.7833 15.6667 12.25 15.6667C12.7166 15.6667 13.1111 15.8279 13.4333 16.1501C13.7555 16.4723 13.9166 16.8667 13.9166 17.3334C13.9166 17.8001 13.7555 18.1945 13.4333 18.5167C13.1111 18.839 12.7166 19.0001 12.25 19.0001ZM20.25 19.0001C19.7833 19.0001 19.3888 18.839 19.0666 18.5167C18.7444 18.1945 18.5833 17.8001 18.5833 17.3334C18.5833 16.8667 18.7444 16.4723 19.0666 16.1501C19.3888 15.8279 19.7833 15.6667 20.25 15.6667C20.7166 15.6667 21.1111 15.8279 21.4333 16.1501C21.7555 16.4723 21.9166 16.8667 21.9166 17.3334C21.9166 17.8001 21.7555 18.1945 21.4333 18.5167C21.1111 18.839 20.7166 19.0001 20.25 19.0001ZM16.25 26.6667C19.2277 26.6667 21.75 25.6334 23.8166 23.5667C25.8833 21.5001 26.9166 18.9779 26.9166 16.0001C26.9166 15.4667 26.8833 14.9501 26.8166 14.4501C26.75 13.9501 26.6277 13.4667 26.45 13.0001C25.9833 13.1112 25.5166 13.1945 25.05 13.2501C24.5833 13.3056 24.0944 13.3334 23.5833 13.3334C21.5611 13.3334 19.65 12.9001 17.85 12.0334C16.05 11.1667 14.5166 9.95564 13.25 8.40008C12.5388 10.1334 11.5222 11.639 10.2 12.9167C8.87774 14.1945 7.33885 15.1556 5.58329 15.8001V16.0001C5.58329 18.9779 6.61663 21.5001 8.68329 23.5667C10.75 25.6334 13.2722 26.6667 16.25 26.6667ZM16.25 29.3334C14.4055 29.3334 12.6722 28.9834 11.05 28.2834C9.42774 27.5834 8.01663 26.6334 6.81663 25.4334C5.61663 24.2334 4.66663 22.8223 3.96663 21.2001C3.26663 19.5779 2.91663 17.8445 2.91663 16.0001C2.91663 14.1556 3.26663 12.4223 3.96663 10.8001C4.66663 9.17786 5.61663 7.76675 6.81663 6.56675C8.01663 5.36675 9.42774 4.41675 11.05 3.71675C12.6722 3.01675 14.4055 2.66675 16.25 2.66675C18.0944 2.66675 19.8277 3.01675 21.45 3.71675C23.0722 4.41675 24.4833 5.36675 25.6833 6.56675C26.8833 7.76675 27.8333 9.17786 28.5333 10.8001C29.2333 12.4223 29.5833 14.1556 29.5833 16.0001C29.5833 17.8445 29.2333 19.5779 28.5333 21.2001C27.8333 22.8223 26.8833 24.2334 25.6833 25.4334C24.4833 26.6334 23.0722 27.5834 21.45 28.2834C19.8277 28.9834 18.0944 29.3334 16.25 29.3334ZM14.45 5.50008C15.3833 7.05564 16.65 8.30564 18.25 9.25008C19.85 10.1945 21.6277 10.6667 23.5833 10.6667C23.8944 10.6667 24.1944 10.6501 24.4833 10.6167C24.7722 10.5834 25.0722 10.5445 25.3833 10.5001C24.45 8.94453 23.1833 7.69453 21.5833 6.75008C19.9833 5.80564 18.2055 5.33341 16.25 5.33341C15.9388 5.33341 15.6388 5.35008 15.35 5.38341C15.0611 5.41675 14.7611 5.45564 14.45 5.50008ZM6.14996 12.6334C7.28329 11.989 8.27218 11.1556 9.11663 10.1334C9.96107 9.11119 10.5944 7.96675 11.0166 6.70008C9.88329 7.34453 8.8944 8.17786 8.04996 9.20008C7.20551 10.2223 6.57218 11.3667 6.14996 12.6334Z" />
  </g>
</svg>