<svg width="30" height="22" viewBox="0 0 30 22" fill="none" xmlns="http://www.w3.org/2000/svg">
  <path
    d="M17.9167 8.19992V5.93325C18.65 5.62214 19.4 5.38881 20.1667 5.23325C20.9334 5.0777 21.7389 4.99992 22.5834 4.99992C23.1612 4.99992 23.7278 5.04436 24.2834 5.13325C24.8389 5.22214 25.3834 5.33325 25.9167 5.46659V7.59992C25.3834 7.39992 24.8445 7.24992 24.3 7.14992C23.7556 7.04992 23.1834 6.99992 22.5834 6.99992C21.7389 6.99992 20.9278 7.10547 20.15 7.31659C19.3723 7.5277 18.6278 7.82214 17.9167 8.19992ZM17.9167 15.5333V13.2666C18.65 12.9555 19.4 12.7221 20.1667 12.5666C20.9334 12.411 21.7389 12.3333 22.5834 12.3333C23.1612 12.3333 23.7278 12.3777 24.2834 12.4666C24.8389 12.5555 25.3834 12.6666 25.9167 12.7999V14.9333C25.3834 14.7333 24.8445 14.5833 24.3 14.4833C23.7556 14.3833 23.1834 14.3333 22.5834 14.3333C21.7389 14.3333 20.9278 14.4333 20.15 14.6333C19.3723 14.8333 18.6278 15.1333 17.9167 15.5333ZM17.9167 11.8666V9.59992C18.65 9.28881 19.4 9.05547 20.1667 8.89992C20.9334 8.74436 21.7389 8.66659 22.5834 8.66659C23.1612 8.66659 23.7278 8.71103 24.2834 8.79992C24.8389 8.88881 25.3834 8.99992 25.9167 9.13325V11.2666C25.3834 11.0666 24.8445 10.9166 24.3 10.8166C23.7556 10.7166 23.1834 10.6666 22.5834 10.6666C21.7389 10.6666 20.9278 10.7721 20.15 10.9833C19.3723 11.1944 18.6278 11.4888 17.9167 11.8666ZM7.91671 16.3333C8.96115 16.3333 9.97782 16.4499 10.9667 16.6833C11.9556 16.9166 12.9389 17.2666 13.9167 17.7333V4.59992C13.0056 4.06659 12.0389 3.66659 11.0167 3.39992C9.99449 3.13325 8.96115 2.99992 7.91671 2.99992C7.11671 2.99992 6.32226 3.0777 5.53337 3.23325C4.74449 3.38881 3.98337 3.62214 3.25004 3.93325V17.1333C4.02782 16.8666 4.80004 16.6666 5.56671 16.5333C6.33337 16.3999 7.11671 16.3333 7.91671 16.3333ZM16.5834 17.7333C17.5612 17.2666 18.5445 16.9166 19.5334 16.6833C20.5223 16.4499 21.5389 16.3333 22.5834 16.3333C23.3834 16.3333 24.1667 16.3999 24.9334 16.5333C25.7 16.6666 26.4723 16.8666 27.25 17.1333V3.93325C26.5167 3.62214 25.7556 3.38881 24.9667 3.23325C24.1778 3.0777 23.3834 2.99992 22.5834 2.99992C21.5389 2.99992 20.5056 3.13325 19.4834 3.39992C18.4612 3.66659 17.4945 4.06659 16.5834 4.59992V17.7333ZM15.25 21.6666C14.1834 20.8221 13.0278 20.1666 11.7834 19.6999C10.5389 19.2333 9.25004 18.9999 7.91671 18.9999C6.98337 18.9999 6.06671 19.1221 5.16671 19.3666C4.26671 19.611 3.4056 19.9555 2.58337 20.3999C2.11671 20.6444 1.66671 20.6333 1.23337 20.3666C0.800041 20.0999 0.583374 19.711 0.583374 19.1999V3.13325C0.583374 2.88881 0.644485 2.65547 0.766707 2.43325C0.88893 2.21103 1.07226 2.04436 1.31671 1.93325C2.33893 1.39992 3.4056 0.999919 4.51671 0.733252C5.62782 0.466585 6.76115 0.333252 7.91671 0.333252C9.2056 0.333252 10.4667 0.499919 11.7 0.833252C12.9334 1.16659 14.1167 1.66659 15.25 2.33325C16.3834 1.66659 17.5667 1.16659 18.8 0.833252C20.0334 0.499919 21.2945 0.333252 22.5834 0.333252C23.7389 0.333252 24.8723 0.466585 25.9834 0.733252C27.0945 0.999919 28.1612 1.39992 29.1834 1.93325C29.4278 2.04436 29.6112 2.21103 29.7334 2.43325C29.8556 2.65547 29.9167 2.88881 29.9167 3.13325V19.1999C29.9167 19.711 29.7 20.0999 29.2667 20.3666C28.8334 20.6333 28.3834 20.6444 27.9167 20.3999C27.0945 19.9555 26.2334 19.611 25.3334 19.3666C24.4334 19.1221 23.5167 18.9999 22.5834 18.9999C21.25 18.9999 19.9612 19.2333 18.7167 19.6999C17.4723 20.1666 16.3167 20.8221 15.25 21.6666Z" />
</svg>