<svg width="33" height="32" viewBox="0 0 33 32" fill="none" xmlns="http://www.w3.org/2000/svg">
<mask id="mask0_355_4155" style="mask-type:alpha" maskUnits="userSpaceOnUse" x="0" y="0" width="33" height="32">
<rect x="0.75" width="32" height="32" fill="#D9D9D9"/>
</mask>
<g mask="url(#mask0_355_4155)">
<path d="M6.08337 25.3334V22.6667H8.75004V13.3334C8.75004 11.489 9.3056 9.85008 10.4167 8.41675C11.5278 6.98341 12.9723 6.04453 14.75 5.60008V4.66675C14.75 4.11119 14.9445 3.63897 15.3334 3.25008C15.7223 2.86119 16.1945 2.66675 16.75 2.66675C17.3056 2.66675 17.7778 2.86119 18.1667 3.25008C18.5556 3.63897 18.75 4.11119 18.75 4.66675V5.60008C20.5278 6.04453 21.9723 6.98341 23.0834 8.41675C24.1945 9.85008 24.75 11.489 24.75 13.3334V22.6667H27.4167V25.3334H6.08337ZM16.75 29.3334C16.0167 29.3334 15.3889 29.0723 14.8667 28.5501C14.3445 28.0279 14.0834 27.4001 14.0834 26.6667H19.4167C19.4167 27.4001 19.1556 28.0279 18.6334 28.5501C18.1112 29.0723 17.4834 29.3334 16.75 29.3334ZM11.4167 22.6667H22.0834V13.3334C22.0834 11.8667 21.5612 10.6112 20.5167 9.56675C19.4723 8.5223 18.2167 8.00008 16.75 8.00008C15.2834 8.00008 14.0278 8.5223 12.9834 9.56675C11.9389 10.6112 11.4167 11.8667 11.4167 13.3334V22.6667Z" fill="#E8F3E9"/>
</g>
</svg>
