<svg width="36" height="40" viewBox="0 0 36 40" fill="none" xmlns="http://www.w3.org/2000/svg">
<path d="M7.1 36H28.9V28H7.1V36ZM7.1 40C6.16667 40 5.35 39.7167 4.65 39.15C3.95 38.5833 3.48333 37.85 3.25 36.95V27.935H32.75V36.95C32.5167 37.85 32.05 38.5833 31.35 39.15C30.65 39.7167 29.8333 40 28.9 40H7.1ZM4 24H32V20H4V24ZM18 12C18 8.66667 19.1667 5.83333 21.5 3.5C23.8333 1.16667 26.6667 0 30 0C30 3 29.05 5.6 27.15 7.8C25.25 10 22.8667 11.3333 20 11.8V16H36V24C36 25.1 35.6083 26.0417 34.825 26.825C34.0417 27.6083 33.1 28 32 28H4C2.9 28 1.95833 27.6083 1.175 26.825C0.391667 26.0417 0 25.1 0 24V16H16V11.8C13.1333 11.3333 10.75 10 8.85 7.8C6.95 5.6 6 3 6 0C9.33333 0 12.1667 1.16667 14.5 3.5C16.8333 5.83333 18 8.66667 18 12Z" fill="#007E51"/>
</svg>
