<svg width="24" height="28" viewBox="0 0 24 28" fill="none" xmlns="http://www.w3.org/2000/svg">
  <path
    d="M4.73333 24.6665H19.2667V19.3332H4.73333V24.6665ZM4.73333 27.3332C4.11111 27.3332 3.56667 27.1443 3.1 26.7665C2.63333 26.3887 2.32222 25.8998 2.16667 25.2998V19.2898H21.8333V25.2998C21.6778 25.8998 21.3667 26.3887 20.9 26.7665C20.4333 27.1443 19.8889 27.3332 19.2667 27.3332H4.73333ZM2.66667 16.6665H21.3333V13.9998H2.66667V16.6665ZM12 8.6665C12 6.44428 12.7778 4.55539 14.3333 2.99984C15.8889 1.44428 17.7778 0.666504 20 0.666504C20 2.6665 19.3667 4.39984 18.1 5.8665C16.8333 7.33317 15.2444 8.22206 13.3333 8.53317V11.3332H24V16.6665C24 17.3998 23.7389 18.0276 23.2167 18.5498C22.6944 19.0721 22.0667 19.3332 21.3333 19.3332H2.66667C1.93333 19.3332 1.30556 19.0721 0.783333 18.5498C0.261111 18.0276 0 17.3998 0 16.6665V11.3332H10.6667V8.53317C8.75556 8.22206 7.16667 7.33317 5.9 5.8665C4.63333 4.39984 4 2.6665 4 0.666504C6.22222 0.666504 8.11111 1.44428 9.66667 2.99984C11.2222 4.55539 12 6.44428 12 8.6665Z" />
</svg>