<svg width="33" height="32" viewBox="0 0 33 32" fill="none" xmlns="http://www.w3.org/2000/svg">
<mask id="mask0_355_4144" style="mask-type:alpha" maskUnits="userSpaceOnUse" x="0" y="0" width="33" height="32">
<rect x="0.75" width="32" height="32" fill="#D9D9D9"/>
</mask>
<g mask="url(#mask0_355_4144)">
<path d="M28.7834 14.7333V25.3333C28.7834 26.0667 28.5223 26.6944 28 27.2167C27.4778 27.7389 26.85 28 26.1167 28H7.45004C6.7167 28 6.08893 27.7389 5.5667 27.2167C5.04448 26.6944 4.78337 26.0667 4.78337 25.3333V14.7333C4.27226 14.2667 3.87781 13.6667 3.60004 12.9333C3.32226 12.2 3.3167 11.4 3.58337 10.5333L4.98337 6C5.16115 5.42222 5.47781 4.94444 5.93337 4.56667C6.38893 4.18889 6.9167 4 7.5167 4H26.05C26.65 4 27.1723 4.18333 27.6167 4.55C28.0611 4.91667 28.3834 5.4 28.5834 6L29.9834 10.5333C30.25 11.4 30.2445 12.1889 29.9667 12.9C29.6889 13.6111 29.2945 14.2222 28.7834 14.7333ZM19.7167 13.3333C20.3167 13.3333 20.7723 13.1278 21.0834 12.7167C21.3945 12.3056 21.5167 11.8444 21.45 11.3333L20.7167 6.66667H18.1167V11.6C18.1167 12.0667 18.2723 12.4722 18.5834 12.8167C18.8945 13.1611 19.2723 13.3333 19.7167 13.3333ZM13.7167 13.3333C14.2278 13.3333 14.6445 13.1611 14.9667 12.8167C15.2889 12.4722 15.45 12.0667 15.45 11.6V6.66667H12.85L12.1167 11.3333C12.0278 11.8667 12.1445 12.3333 12.4667 12.7333C12.7889 13.1333 13.2056 13.3333 13.7167 13.3333ZM7.78337 13.3333C8.18337 13.3333 8.53337 13.1889 8.83337 12.9C9.13337 12.6111 9.3167 12.2444 9.38337 11.8L10.1167 6.66667H7.5167L6.18337 11.1333C6.05004 11.5778 6.12226 12.0556 6.40004 12.5667C6.67781 13.0778 7.13893 13.3333 7.78337 13.3333ZM25.7834 13.3333C26.4278 13.3333 26.8945 13.0778 27.1834 12.5667C27.4723 12.0556 27.5389 11.5778 27.3834 11.1333L25.9834 6.66667H23.45L24.1834 11.8C24.25 12.2444 24.4334 12.6111 24.7334 12.9C25.0334 13.1889 25.3834 13.3333 25.7834 13.3333ZM7.45004 25.3333H26.1167V15.9333C26.0056 15.9778 25.9334 16 25.9 16H25.7834C25.1834 16 24.6556 15.9 24.2 15.7C23.7445 15.5 23.2945 15.1778 22.85 14.7333C22.45 15.1333 21.9945 15.4444 21.4834 15.6667C20.9723 15.8889 20.4278 16 19.85 16C19.25 16 18.6889 15.8889 18.1667 15.6667C17.6445 15.4444 17.1834 15.1333 16.7834 14.7333C16.4056 15.1333 15.9667 15.4444 15.4667 15.6667C14.9667 15.8889 14.4278 16 13.85 16C13.2056 16 12.6223 15.8889 12.1 15.6667C11.5778 15.4444 11.1167 15.1333 10.7167 14.7333C10.25 15.2 9.78893 15.5278 9.33337 15.7167C8.87781 15.9056 8.36115 16 7.78337 16H7.63337C7.57781 16 7.5167 15.9778 7.45004 15.9333V25.3333Z" fill="#E8F3E9"/>
</g>
</svg>
