<svg width="24" height="24" viewBox="0 0 24 24" fill="none" xmlns="http://www.w3.org/2000/svg">
<mask id="mask0_110_7379" style="mask-type:alpha" maskUnits="userSpaceOnUse" x="0" y="0" width="24" height="24">
<rect width="24" height="24" fill="#D9D9D9"/>
</mask>
<g mask="url(#mask0_110_7379)">
<path d="M12.275 19C12.475 18.9833 12.6458 18.9042 12.7875 18.7625C12.9292 18.6208 13 18.45 13 18.25C13 18.0167 12.925 17.8292 12.775 17.6875C12.625 17.5458 12.4333 17.4833 12.2 17.5C11.5167 17.55 10.7917 17.3625 10.025 16.9375C9.25833 16.5125 8.775 15.7417 8.575 14.625C8.54167 14.4417 8.45417 14.2917 8.3125 14.175C8.17083 14.0583 8.00833 14 7.825 14C7.59167 14 7.4 14.0875 7.25 14.2625C7.1 14.4375 7.05 14.6417 7.1 14.875C7.38333 16.3917 8.05 17.475 9.1 18.125C10.15 18.775 11.2083 19.0667 12.275 19ZM12 22C9.71667 22 7.8125 21.2167 6.2875 19.65C4.7625 18.0833 4 16.1333 4 13.8C4 12.1333 4.6625 10.3208 5.9875 8.3625C7.3125 6.40417 9.31667 4.28333 12 2C14.6833 4.28333 16.6875 6.40417 18.0125 8.3625C19.3375 10.3208 20 12.1333 20 13.8C20 16.1333 19.2375 18.0833 17.7125 19.65C16.1875 21.2167 14.2833 22 12 22Z" fill="#00C4DF"/>
</g>
</svg>
